<?xml version="1.0" encoding="utf-8"?>
<!-- Generator: Adobe Illustrator 16.2.1, SVG Export Plug-In . SVG Version: 6.00 Build 0)  -->
<!DOCTYPE svg PUBLIC "-//W3C//DTD SVG 1.1//EN" "http://www.w3.org/Graphics/SVG/1.1/DTD/svg11.dtd">
<svg version="1.1" id="Layer_1" xmlns="http://www.w3.org/2000/svg" xmlns:xlink="http://www.w3.org/1999/xlink" x="0px" y="0px"
	 width="249.03px" height="243.666px" viewBox="0 0 249.03 243.666" enable-background="new 0 0 249.03 243.666"
	 xml:space="preserve">
<g>
	<polygon fill="#BCBEC0" points="72.316,0.054 72.316,39.779 93.86,54.142 125.947,35.805 	"/>
	<polygon fill="#0098D1" points="0.812,107.311 0.812,147.035 125.947,75.531 93.86,54.142 	"/>
	<polygon fill="#0076A3" points="93.86,54.142 125.947,75.531 125.947,35.805 	"/>
	<g>
		<path fill="#FFFFFF" d="M6.83,185.822v8.896h15.077v5.479H6.83v13.347H0.786v-33.201h22.948v5.479H6.83z"/>
		<path fill="#FFFFFF" d="M27.148,185.822v-6.045h6.278v6.045H27.148z M27.336,213.545v-24.352h5.949v24.352H27.336z"/>
		<path fill="#FFFFFF" d="M50.424,194.394c-4.12,0-6.276,2.95-6.276,6.883v12.269h-5.9v-24.352h4.964l0.516,3.652
			c1.123-2.809,4.027-3.982,6.885-3.982c0.609,0,1.217,0.051,1.826,0.143v5.621C51.781,194.486,51.081,194.394,50.424,194.394z"/>
		<path fill="#FFFFFF" d="M72.246,211.344c-1.969,1.969-5.013,2.813-8.337,2.813c-3.089,0-5.854-0.891-7.868-2.813
			c-1.406-1.357-2.575-3.375-2.575-5.668h5.479c0,1.078,0.561,2.252,1.312,2.859c0.937,0.748,2.013,1.077,3.697,1.077
			c1.968,0,4.964-0.421,4.964-3.091c0-1.406-0.936-2.342-2.434-2.574c-2.156-0.329-4.59-0.471-6.746-0.941
			c-3.324-0.699-5.57-3.416-5.57-6.507c0-2.481,1.029-4.216,2.482-5.479c1.779-1.548,4.357-2.438,7.4-2.438
			c2.902,0,5.852,0.938,7.633,2.857c1.312,1.406,2.152,3.232,2.152,5.014h-5.572c0-0.937-0.42-1.686-0.983-2.298
			c-0.702-0.702-1.968-1.123-3.185-1.123c-0.842,0-1.639,0-2.528,0.376c-1.03,0.42-1.874,1.311-1.874,2.574
			c0,1.735,1.5,2.252,2.811,2.436c2.201,0.281,2.809,0.33,5.201,0.706c3.838,0.608,6.647,3.042,6.647,6.881
			C74.353,208.349,73.51,210.08,72.246,211.344z"/>
		<path fill="#FFFFFF" d="M87.416,213.873c-4.917,0-7.353-2.807-7.353-7.492v-12.363h-4.449v-4.824h4.449v-6.184l5.854-1.447v7.631
			h6.135v4.824h-6.135v11.847c0,1.872,0.843,2.671,2.718,2.671c1.217,0,2.2-0.049,3.791-0.231v4.913
			C90.788,213.641,89.146,213.873,87.416,213.873z"/>
		<path fill="#FFFFFF" d="M118.229,210.595c-2.527,2.529-6.415,3.562-10.49,3.562c-3.512,0-7.211-0.94-9.929-3.42
			c-1.966-1.782-3.465-4.59-3.465-7.731h6.183c0,1.643,0.747,3.092,1.732,4.079c1.405,1.401,3.653,1.776,5.572,1.776
			c2.295,0,4.498-0.468,5.762-1.776c0.748-0.796,1.311-1.595,1.311-3.187c0-2.436-1.874-3.559-3.932-3.934
			c-2.25-0.42-5.153-0.516-7.354-0.891c-4.59-0.748-8.433-3.745-8.433-9.273c0-2.622,1.172-4.822,2.908-6.559
			c2.197-2.15,5.852-3.512,9.738-3.512c3.561,0,7.025,1.123,9.273,3.234c1.969,1.872,3.324,4.31,3.373,7.072h-6.183
			c-0.045-1.174-0.655-2.438-1.453-3.279c-1.074-1.123-3.277-1.779-5.056-1.779c-1.874,0-4.029,0.42-5.388,1.826
			c-0.702,0.75-1.125,1.593-1.125,2.809c0,2.155,1.407,3.281,3.373,3.607c2.106,0.328,5.06,0.561,7.211,0.841
			c4.966,0.706,9.134,3.938,9.134,9.602C120.992,206.754,119.868,208.955,118.229,210.595z"/>
		<path fill="#FFFFFF" d="M145.436,203.197h-16.297c-0.049,1.873,0.609,3.648,1.779,4.771c0.843,0.801,2.013,1.503,3.607,1.503
			c1.685,0,2.713-0.329,3.557-1.168c0.515-0.517,0.939-1.176,1.172-2.063h5.619c-0.139,1.455-1.123,3.372-2.061,4.497
			c-2.061,2.434-5.103,3.42-8.197,3.42c-3.324,0-5.758-1.174-7.679-2.999c-2.436-2.34-3.747-5.76-3.747-9.741
			c0-3.891,1.172-7.355,3.512-9.744c1.83-1.872,4.451-3.091,7.775-3.091c3.605,0,6.885,1.455,8.897,4.497
			c1.78,2.671,2.201,5.435,2.11,8.479C145.484,201.559,145.436,202.682,145.436,203.197z M138.131,194.672
			c-0.797-0.844-2.016-1.402-3.703-1.402c-1.778,0-3.23,0.748-4.071,1.871c-0.845,1.078-1.218,2.203-1.267,3.792h10.539
			C139.58,197.109,139.066,195.705,138.131,194.672z"/>
		<path fill="#FFFFFF" d="M161.262,194.394c-4.123,0-6.276,2.95-6.276,6.883v12.269h-5.902v-24.352h4.966l0.518,3.652
			c1.123-2.809,4.024-3.982,6.883-3.982c0.606,0,1.219,0.051,1.827,0.143v5.621C162.619,194.486,161.917,194.394,161.262,194.394z"
			/>
		<path fill="#FFFFFF" d="M180.692,213.545h-6.228l-9.038-24.352h6.183l6.086,17.141l5.762-17.141h6.043L180.692,213.545z"/>
		<path fill="#FFFFFF" d="M192.493,185.822v-6.045h6.276v6.045H192.493z M192.682,213.545v-24.352h5.945v24.352H192.682z"/>
		<path fill="#FFFFFF" d="M222.416,210.221c-1.684,2.105-4.637,3.84-8.334,3.84c-3.701,0-6.791-1.775-8.477-3.84
			c-1.828-2.293-2.671-5.339-2.671-8.896c0-3.561,0.843-6.606,2.671-8.903c1.686-2.057,4.775-3.84,8.477-3.84
			c3.697,0,6.65,1.734,8.334,3.84c1.123,1.455,1.781,3.373,1.875,5.296h-5.762c-0.045-0.89-0.327-1.64-0.703-2.252
			c-0.701-1.072-1.966-1.821-3.744-1.821c-1.594,0-2.764,0.653-3.561,1.496c-1.404,1.546-1.639,3.888-1.639,6.185
			c0,2.293,0.234,4.588,1.639,6.134c0.797,0.845,1.967,1.543,3.561,1.543c1.778,0,3.043-0.749,3.744-1.823
			c0.376-0.61,0.658-1.36,0.703-2.25h5.762C224.197,206.846,223.539,208.77,222.416,210.221z"/>
		<path fill="#FFFFFF" d="M249.154,203.197h-16.297c-0.049,1.873,0.609,3.648,1.781,4.771c0.841,0.801,2.013,1.503,3.605,1.503
			c1.686,0,2.715-0.329,3.557-1.168c0.516-0.517,0.938-1.176,1.172-2.063h5.62c-0.141,1.455-1.124,3.372-2.062,4.497
			c-2.059,2.434-5.104,3.42-8.193,3.42c-3.324,0-5.762-1.174-7.682-2.999c-2.436-2.34-3.748-5.76-3.748-9.741
			c0-3.891,1.172-7.355,3.512-9.744c1.828-1.872,4.451-3.091,7.775-3.091c3.605,0,6.886,1.455,8.896,4.497
			c1.783,2.671,2.205,5.435,2.109,8.479C249.201,201.559,249.154,202.682,249.154,203.197z M241.85,194.672
			c-0.797-0.844-2.014-1.402-3.699-1.402c-1.781,0-3.234,0.748-4.074,1.871c-0.845,1.078-1.219,2.203-1.268,3.792h10.537
			C243.299,197.109,242.785,195.705,241.85,194.672z"/>
	</g>
	<g>
		<path fill="#FFFFFF" d="M111.676,243.666l-2.875-6.326h-4.202v6.326h-1.908v-15.205h5.96c1.783,0,3.025,0.496,3.861,1.351
			c0.729,0.773,1.202,1.759,1.202,3.087c0,1.332-0.429,2.232-1.157,3.003c-0.45,0.474-1.096,0.837-1.824,1.074l3.045,6.69H111.676z
			 M108.65,230.221h-4.052v5.339h4.052c1.804,0,3.09-0.729,3.09-2.661C111.74,230.97,110.454,230.221,108.65,230.221z"/>
		<path fill="#FFFFFF" d="M118.389,243.666v-15.205h10.164v1.76h-8.257v4.631h7.249v1.803h-7.249v5.254h8.257v1.758H118.389z"/>
		<path fill="#FFFFFF" d="M142.296,242.424c-1.052,1.029-2.682,1.522-4.312,1.522c-1.844,0-3.322-0.517-4.354-1.459
			c-0.963-0.901-1.629-2.208-1.629-3.646h1.994c0,0.9,0.45,1.801,1.072,2.402c0.688,0.664,1.846,0.942,2.916,0.942
			c1.158,0,2.146-0.236,2.832-0.878c0.471-0.429,0.773-0.966,0.773-1.783c0-1.179-0.751-2.165-2.554-2.443l-2.399-0.363
			c-2.277-0.344-4.055-1.607-4.055-4.032c0-1.138,0.516-2.233,1.329-3.003c1.052-0.986,2.401-1.5,3.987-1.5
			c1.481,0,2.94,0.494,3.947,1.459c0.922,0.879,1.416,1.97,1.457,3.256h-1.994c-0.041-0.749-0.319-1.414-0.752-1.908
			c-0.576-0.662-1.498-1.049-2.678-1.049c-1.093,0-2.037,0.3-2.704,1.049c-0.383,0.453-0.622,0.966-0.622,1.654
			c0,1.369,1.139,1.991,2.275,2.145c0.857,0.105,1.693,0.254,2.531,0.386c2.529,0.362,4.223,1.907,4.223,4.31
			C143.582,240.748,143.047,241.691,142.296,242.424z"/>
		<path fill="#FFFFFF" d="M148.302,243.666v-15.205h1.949v15.205H148.302z"/>
		<path fill="#FFFFFF" d="M165.329,242.146c-1.072,1.027-2.511,1.521-3.987,1.521h-5.299v-15.205h5.299
			c1.477,0,2.915,0.517,3.987,1.544c1.673,1.587,1.951,3.862,1.951,6.049C167.28,238.239,166.981,240.559,165.329,242.146z
			 M164.043,231.271c-0.709-0.708-1.717-1.05-2.701-1.05h-3.387v11.688h3.387c0.984,0,1.992-0.343,2.701-1.049
			c1.199-1.223,1.307-3.178,1.307-4.806C165.35,234.422,165.242,232.514,164.043,231.271z"/>
		<path fill="#FFFFFF" d="M172.062,243.666v-15.205h10.167v1.76h-8.258v4.631h7.25v1.803h-7.25v5.254h8.258v1.758H172.062z"/>
		<path fill="#FFFFFF" d="M196.273,243.666l-7.465-12.223v12.223h-1.844v-15.205h2.145l7.463,12.267v-12.267h1.846v15.205H196.273z"
			/>
		<path fill="#FFFFFF" d="M208.798,230.241v13.425h-1.929v-13.425h-4.527v-1.78h10.981v1.78H208.798z"/>
		<path fill="#FFFFFF" d="M217.246,243.666v-15.205h1.951v15.205H217.246z"/>
		<path fill="#FFFFFF" d="M234.015,243.666l-1.243-3.604h-6.604l-1.224,3.604h-1.931l5.363-15.205h2.23l5.383,15.205H234.015z
			 M229.447,230.369l-2.678,7.893h5.382L229.447,230.369z"/>
		<path fill="#FFFFFF" d="M239.807,243.666v-15.205h1.909v13.426h7.314v1.779H239.807z"/>
	</g>
</g>
</svg>
